<svg width="44" height="37" viewBox="0 0 44 37" fill="none" xmlns="http://www.w3.org/2000/svg">
<path d="M5.1207 27.7748C2.80211 28.5658 0.565895 31.3129 0.0550015 33.719C-0.423961 35.9738 2.34683 37.0223 3.64982 35.2342C4.17513 34.5142 4.52121 33.9117 5.16704 33.2957C5.79844 32.6921 6.61113 32.3172 7.36408 31.6281C9.03066 30.1047 7.29612 27.0311 5.1207 27.7748Z" fill="#543EE8"/>
<path d="M18.532 26.139C17.9645 25.4263 17.0045 25.0431 16.0981 25.3088C14.8909 25.6632 14.0226 26.7179 13.2263 27.647C12.4281 28.5792 11.6566 29.535 11.2126 30.6856C10.881 31.5457 11.4341 32.6334 12.1829 33.0711C13.0523 33.5799 14.0019 33.3348 14.7425 32.7405C15.4234 32.1946 15.9642 31.4426 16.5935 30.8339C17.2867 30.1634 18.2807 29.5835 18.7133 28.71C19.1305 27.8674 19.1408 26.9033 18.532 26.139Z" fill="#543EE8"/>
<path d="M14.5059 16.3549C14.0362 15.5525 12.8579 14.9417 11.935 15.3084C9.3774 16.3261 7.19888 19.3358 6.38206 21.9057C5.86705 23.527 8.22582 25.0483 9.36194 23.6403C10.049 22.7884 10.7226 21.9232 11.5095 21.1579C12.3171 20.373 13.3791 19.9033 14.1505 19.1143C14.8561 18.3913 15.0199 17.2335 14.5059 16.3549Z" fill="#543EE8"/>
<path d="M28.1463 13.0876C26.2665 12.7466 24.7256 13.9198 23.2671 15.0024C21.9383 15.9871 20.5334 17.1108 19.8247 18.6476C19.1233 20.169 20.5756 21.8531 22.1711 20.994C23.3979 20.3338 24.432 19.3615 25.6341 18.6518C26.9875 17.8535 28.5161 17.6063 29.438 16.2621C30.1816 15.1765 29.4668 13.3265 28.1463 13.0876Z" fill="#543EE8"/>
<path d="M38.7935 14.5276C37.7048 14.0775 36.4151 14.7501 35.8754 15.7142C35.8054 15.8388 35.7765 15.9789 35.7312 16.1128C35.0184 16.7638 34.2387 17.3623 33.5177 17.9854C32.5536 18.8177 31.2537 19.685 30.9879 20.9941C30.7696 22.0674 31.4504 22.9738 32.5484 23.0418C34.1182 23.1397 35.6344 21.711 36.8715 20.8726C38.1343 20.0156 40.1943 19.1143 40.4529 17.4488C40.6681 16.0531 40.0996 15.0684 38.7935 14.5276Z" fill="#543EE8"/>
<path d="M27.7738 0.370899C25.6118 1.82324 22.9945 3.15196 21.2507 5.11829C20.2052 6.29767 21.194 8.74912 22.9564 8.04973C25.4377 7.06503 27.6276 5.40051 30.0718 4.30353C32.719 3.11488 30.25 -1.29362 27.7738 0.370899Z" fill="#543EE8"/>
<path d="M40.3335 3.20346C38.1499 4.23555 35.7355 5.45612 33.8093 6.91155C32.2416 8.09608 33.0626 10.8617 35.2277 10.2766C37.7183 9.60301 40.3541 8.3402 42.6511 7.16906C45.3055 5.81663 42.9776 1.95507 40.3335 3.20346Z" fill="#543EE8"/>
</svg>
