<svg width="16" height="16" viewBox="0 0 16 16" fill="none" xmlns="http://www.w3.org/2000/svg">
<path d="M12.0206 11.0779L14.8757 13.933L13.9329 14.8758L11.0778 12.0207C10.0512 12.842 8.74925 13.3333 7.33325 13.3333C4.02125 13.3333 1.33325 10.6453 1.33325 7.33334C1.33325 4.02134 4.02125 1.33334 7.33325 1.33334C10.6453 1.33334 13.3333 4.02134 13.3333 7.33334C13.3333 8.74934 12.8419 10.0513 12.0206 11.0779ZM10.6831 10.5832C11.4983 9.74308 11.9999 8.59708 11.9999 7.33334C11.9999 4.75501 9.91158 2.66668 7.33325 2.66668C4.75492 2.66668 2.66659 4.75501 2.66659 7.33334C2.66659 9.91168 4.75492 12 7.33325 12C8.59698 12 9.74298 11.4983 10.5831 10.6831L10.6831 10.5832Z" fill="white"/>
</svg>
