<svg width="17" height="18" viewBox="0 0 17 18" fill="none" xmlns="http://www.w3.org/2000/svg">
<path d="M14.1667 16.364H12.75V14.9473C12.75 13.7737 11.7986 12.8223 10.625 12.8223H6.375C5.2014 12.8223 4.25 13.7737 4.25 14.9473V16.364H2.83334V14.9473C2.83334 12.9914 4.419 11.4057 6.375 11.4057H10.625C12.581 11.4057 14.1667 12.9914 14.1667 14.9473V16.364ZM8.5 9.98901C6.15279 9.98901 4.25 8.08622 4.25 5.73901C4.25 3.3918 6.15279 1.48901 8.5 1.48901C10.8472 1.48901 12.75 3.3918 12.75 5.73901C12.75 8.08622 10.8472 9.98901 8.5 9.98901ZM8.5 8.57235C10.0648 8.57235 11.3333 7.30382 11.3333 5.73901C11.3333 4.17421 10.0648 2.90568 8.5 2.90568C6.93519 2.90568 5.66667 4.17421 5.66667 5.73901C5.66667 7.30382 6.93519 8.57235 8.5 8.57235Z" fill="#5F5D5D"/>
</svg>
