<svg width="23" height="23" viewBox="0 0 23 23" fill="none" xmlns="http://www.w3.org/2000/svg">
<path fill-rule="evenodd" clip-rule="evenodd" d="M5.75 16.2917V19.1667C5.75 19.5347 5.96082 19.871 6.29336 20.0301C6.62494 20.1902 7.01979 20.1451 7.30729 19.9151L11.8364 16.2917H17.25C18.838 16.2917 20.125 15.0046 20.125 13.4167V5.75C20.125 4.16204 18.838 2.875 17.25 2.875H5.75C4.16204 2.875 2.875 4.16204 2.875 5.75V13.4167C2.875 15.0046 4.16204 16.2917 5.75 16.2917ZM7.66667 15.3333C7.66667 14.8043 7.23733 14.375 6.70833 14.375H5.75C5.221 14.375 4.79167 13.9457 4.79167 13.4167V5.75C4.79167 5.221 5.221 4.79167 5.75 4.79167H17.25C17.779 4.79167 18.2083 5.221 18.2083 5.75V13.4167C18.2083 13.9457 17.779 14.375 17.25 14.375H11.5C11.2825 14.375 11.0716 14.4488 10.901 14.5849L7.66667 17.1724V15.3333ZM8.625 10.5417H14.375C14.904 10.5417 15.3333 10.1123 15.3333 9.58333C15.3333 9.05433 14.904 8.625 14.375 8.625H8.625C8.096 8.625 7.66667 9.05433 7.66667 9.58333C7.66667 10.1123 8.096 10.5417 8.625 10.5417Z" fill="#5F5D5D"/>
</svg>
