<svg width="16" height="16" viewBox="0 0 16 16" fill="none" xmlns="http://www.w3.org/2000/svg">
<path d="M12.0208 11.0779L14.876 13.933L13.9332 14.8758L11.078 12.0207C10.0514 12.842 8.7495 13.3333 7.3335 13.3333C4.0215 13.3333 1.3335 10.6453 1.3335 7.33334C1.3335 4.02134 4.0215 1.33334 7.3335 1.33334C10.6455 1.33334 13.3335 4.02134 13.3335 7.33334C13.3335 8.74934 12.8422 10.0513 12.0208 11.0779ZM10.6833 10.5832C11.4985 9.74308 12.0002 8.59708 12.0002 7.33334C12.0002 4.75501 9.91183 2.66668 7.3335 2.66668C4.75516 2.66668 2.66683 4.75501 2.66683 7.33334C2.66683 9.91168 4.75516 12 7.3335 12C8.59723 12 9.74323 11.4983 10.5834 10.6831L10.6833 10.5832Z" fill="#738281"/>
</svg>
