<svg width="17" height="17" viewBox="0 0 17 17" fill="none" xmlns="http://www.w3.org/2000/svg">
<path d="M14.875 2.83341H4.95833C4.17593 2.83341 3.54167 3.46768 3.54167 4.25008C3.54167 5.03249 4.17593 5.66675 4.95833 5.66675H14.875V14.8751C14.875 15.2663 14.5579 15.5834 14.1667 15.5834H4.95833C3.39353 15.5834 2.125 14.3149 2.125 12.7501V4.25008C2.125 2.68527 3.39353 1.41675 4.95833 1.41675H14.1667C14.5579 1.41675 14.875 1.73388 14.875 2.12508V2.83341ZM3.54167 12.7501C3.54167 13.5325 4.17593 14.1667 4.95833 14.1667H13.4583V7.08341H4.95833C4.44226 7.08341 3.95841 6.94544 3.54167 6.70436V12.7501ZM14.1667 4.95841H4.95833C4.56713 4.95841 4.25 4.64128 4.25 4.25008C4.25 3.85888 4.56713 3.54175 4.95833 3.54175H14.1667V4.95841Z" fill="#5F5D5D"/>
</svg>
