<svg width="16" height="15" viewBox="0 0 16 15" fill="none" xmlns="http://www.w3.org/2000/svg">
<path d="M7.52447 1.3008C7.67415 0.840141 8.32585 0.840142 8.47553 1.3008L9.5451 4.59259C9.74591 5.21063 10.3218 5.62907 10.9717 5.62907H14.4329C14.9172 5.62907 15.1186 6.24888 14.7268 6.53358L11.9266 8.56802C11.4009 8.94998 11.1809 9.62704 11.3817 10.2451L12.4513 13.5369C12.6009 13.9975 12.0737 14.3806 11.6818 14.0959L8.88168 12.0614C8.35595 11.6795 7.64405 11.6795 7.11832 12.0614L4.31815 14.0959C3.9263 14.3806 3.39906 13.9975 3.54873 13.5369L4.6183 10.2451C4.81911 9.62704 4.59913 8.94998 4.07339 8.56802L1.27323 6.53358C0.881369 6.24888 1.08276 5.62907 1.56712 5.62907H5.02832C5.67816 5.62907 6.25409 5.21063 6.4549 4.59259L7.52447 1.3008Z" stroke="#FFCD20"/>
</svg>
