<svg width="20" height="20" viewBox="0 0 20 20" fill="none" xmlns="http://www.w3.org/2000/svg">
<path d="M3.33892 5.34738L0.636719 2.64518L1.81523 1.46667L4.51743 4.16887H17.2189C17.6791 4.16887 18.0522 4.54197 18.0522 5.00221C18.0522 5.08331 18.0404 5.16398 18.0171 5.24167L16.0171 11.9083C15.9114 12.2608 15.5869 12.5022 15.2189 12.5022H5.00559V14.1689H14.1723V15.8356H4.17225C3.71201 15.8356 3.33892 15.4624 3.33892 15.0023V5.34738ZM5.00559 5.83554V10.8356H14.5989L16.0989 5.83554H5.00559ZM4.58892 19.1689C3.89856 19.1689 3.33892 18.6093 3.33892 17.9189C3.33892 17.2285 3.89856 16.6689 4.58892 16.6689C5.27928 16.6689 5.83892 17.2285 5.83892 17.9189C5.83892 18.6093 5.27928 19.1689 4.58892 19.1689ZM14.589 19.1689C13.8985 19.1689 13.339 18.6093 13.339 17.9189C13.339 17.2285 13.8985 16.6689 14.589 16.6689C15.2793 16.6689 15.839 17.2285 15.839 17.9189C15.839 18.6093 15.2793 19.1689 14.589 19.1689Z" fill="#543EE8"/>
</svg>
