<svg width="28" height="28" viewBox="0 0 28 28" fill="none" xmlns="http://www.w3.org/2000/svg">
<path d="M14.0002 2.3335C20.4434 2.3335 25.6668 7.55684 25.6668 14.0002C25.6668 20.4434 20.4434 25.6668 14.0002 25.6668C7.55684 25.6668 2.3335 20.4434 2.3335 14.0002C2.3335 7.55684 7.55684 2.3335 14.0002 2.3335ZM14.0002 4.66683C8.8455 4.66683 4.66683 8.8455 4.66683 14.0002C4.66683 19.1548 8.8455 23.3335 14.0002 23.3335C19.1548 23.3335 23.3335 19.1548 23.3335 14.0002C23.3335 8.8455 19.1548 4.66683 14.0002 4.66683ZM14.0002 12.8335C16.3335 12.8335 18.278 13.2223 19.8335 14.0002C19.8335 17.2218 17.2218 19.8335 14.0002 19.8335C10.7785 19.8335 8.16683 17.2218 8.16683 14.0002C9.72238 13.2223 11.6668 12.8335 14.0002 12.8335ZM9.91683 8.16683C11.3281 8.16683 12.5053 9.1692 12.7753 10.5008H7.05837C7.32836 9.1692 8.50554 8.16683 9.91683 8.16683ZM18.0835 8.16683C19.4948 8.16683 20.672 9.1692 20.9419 10.5008H15.225C15.495 9.1692 16.6722 8.16683 18.0835 8.16683Z" fill="#4c6ae6"/>
</svg>
