<svg width="17" height="17" viewBox="0 0 17 17" fill="none" xmlns="http://www.w3.org/2000/svg">
<path d="M2.83333 8.02784L0 6.37508L8.5 1.41675L17 6.37508V12.3959H15.5833V7.20149L14.1667 8.02784V12.7581L14.009 12.9529C12.7115 14.5563 10.7254 15.5834 8.5 15.5834C6.27454 15.5834 4.28846 14.5563 2.99103 12.9529L2.83333 12.7581V8.02784ZM4.25 8.85425V12.2484C5.28927 13.4258 6.80788 14.1667 8.5 14.1667C10.1921 14.1667 11.7107 13.4258 12.75 12.2484V8.85425L8.5 11.3334L4.25 8.85425ZM2.81157 6.37508L8.5 9.69334L14.1884 6.37508L8.5 3.05683L2.81157 6.37508Z" fill="#5F5D5D"/>
</svg>
