<svg width="23" height="23" viewBox="0 0 23 23" fill="none" xmlns="http://www.w3.org/2000/svg">
<path fill-rule="evenodd" clip-rule="evenodd" d="M14.375 3.83366V2.87533C14.375 2.34633 14.8043 1.91699 15.3333 1.91699C15.8623 1.91699 16.2917 2.34633 16.2917 2.87533V3.83366C18.4086 3.83366 20.125 5.55003 20.125 7.66699V17.2503C20.125 19.3673 18.4086 21.0837 16.2917 21.0837C13.5508 21.0837 9.44821 21.0837 6.70833 21.0837C4.59137 21.0837 2.875 19.3673 2.875 17.2503V7.66699C2.875 5.55003 4.59137 3.83366 6.70833 3.83366V2.87533C6.70833 2.34633 7.13767 1.91699 7.66667 1.91699C8.19567 1.91699 8.625 2.34633 8.625 2.87533V3.83366H14.375ZM18.2083 11.5003H4.79167V17.2503C4.79167 18.3083 5.64937 19.167 6.70833 19.167H16.2917C17.3497 19.167 18.2083 18.3083 18.2083 17.2503V11.5003ZM16.2917 5.75033V6.70866C16.2917 7.23766 15.8623 7.66699 15.3333 7.66699C14.8043 7.66699 14.375 7.23766 14.375 6.70866V5.75033H8.625V6.70866C8.625 7.23766 8.19567 7.66699 7.66667 7.66699C7.13767 7.66699 6.70833 7.23766 6.70833 6.70866V5.75033C5.64937 5.75033 4.79167 6.60803 4.79167 7.66699V9.58366H18.2083V7.66699C18.2083 6.60803 17.3497 5.75033 16.2917 5.75033Z" fill="#5F5D5D"/>
</svg>
